<svg xmlns="http://www.w3.org/2000/svg" xmlns:xlink="http://www.w3.org/1999/xlink" width="2000" zoomAndPan="magnify" viewBox="0 0 1500 1499.999933" height="2000" preserveAspectRatio="xMidYMid meet" version="1.0"><defs><g/><clipPath id="c3662ee467"><path d="M 150 593.425781 L 297 593.425781 L 297 837 L 150 837 Z M 150 593.425781 " clip-rule="nonzero"/></clipPath><clipPath id="9b5a28d647"><path d="M 219 604 L 392.25 604 L 392.25 873.925781 L 219 873.925781 Z M 219 604 " clip-rule="nonzero"/></clipPath></defs><g clip-path="url(#c3662ee467)"><path fill="#502108" d="M 150.066406 751.910156 C 150.746094 725.609375 157.847656 699.621094 170.886719 675.300781 C 186.050781 647.015625 207.660156 624.742188 235.34375 608.636719 C 251.558594 599.203125 269.082031 593.265625 288.148438 593.441406 C 295.699219 593.507812 298.921875 600.5 294.699219 607.183594 C 282.542969 626.417969 280.734375 647.523438 281.921875 669.667969 C 283.035156 690.386719 283.742188 711.316406 282.015625 731.929688 C 280.972656 744.300781 275.410156 756.4375 270.941406 768.328125 C 267.753906 776.816406 263.753906 785.214844 258.785156 792.78125 C 246.164062 812.007812 228.699219 825.664062 206.945312 833.199219 C 200.617188 835.390625 193.441406 836.554688 186.789062 836.128906 C 175.40625 835.398438 170.378906 825.742188 165.257812 817.296875 C 154.605469 799.714844 151.429688 785.273438 150.066406 751.910156 Z M 150.066406 751.910156 " fill-opacity="1" fill-rule="nonzero"/></g><g clip-path="url(#9b5a28d647)"><path fill="#502108" d="M 392.511719 712.777344 C 391.269531 759.488281 374.484375 803.054688 336.957031 837.84375 C 319.503906 854.011719 299.746094 865.6875 276.378906 870.894531 C 259.746094 874.601562 243.132812 874.726562 226.769531 869.808594 C 223.867188 868.933594 219.925781 865.765625 219.710938 863.359375 C 219.484375 860.957031 222.785156 857.101562 225.480469 855.734375 C 242.273438 847.207031 257.339844 836.800781 270.117188 822.625 C 281.652344 809.839844 290.308594 795.375 296.347656 779.761719 C 303.652344 760.894531 309.085938 741.214844 308.222656 720.472656 C 307.296875 698.226562 306.226562 675.972656 305.84375 653.714844 C 305.613281 640.332031 308.75 627.128906 316.300781 616.199219 C 326.738281 601.09375 334.65625 601.496094 348.722656 613.359375 C 378.519531 638.476562 390.625 671.289062 392.511719 712.777344 Z M 392.511719 712.777344 " fill-opacity="1" fill-rule="nonzero"/></g><g fill="#502108" fill-opacity="1"><g transform="translate(450.242611, 825.361253)"><g><path d="M 84.6875 -137.421875 C 98.882812 -137.421875 110.660156 -131.578125 120.015625 -119.890625 C 129.367188 -108.203125 134.046875 -90.492188 134.046875 -66.765625 C 134.046875 -51.179688 131.40625 -38.148438 126.125 -27.671875 C 120.84375 -17.191406 113.785156 -9.351562 104.953125 -4.15625 C 96.117188 1.039062 86.503906 3.640625 76.109375 3.640625 C 67.453125 3.640625 59.097656 1.171875 51.046875 -3.765625 C 42.992188 -8.703125 36.976562 -16.019531 33 -25.71875 L 38.1875 -22.859375 C 42.519531 -15.929688 47.890625 -10.78125 54.296875 -7.40625 C 60.703125 -4.03125 67.28125 -2.34375 74.03125 -2.34375 C 85.632812 -2.34375 94.335938 -7.578125 100.140625 -18.046875 C 105.941406 -28.523438 108.84375 -44.765625 108.84375 -66.765625 C 108.84375 -80.796875 107.71875 -92.484375 105.46875 -101.828125 C 103.21875 -111.179688 99.753906 -118.148438 95.078125 -122.734375 C 90.398438 -127.328125 84.425781 -129.625 77.15625 -129.625 C 69.1875 -129.625 61.78125 -126.03125 54.9375 -118.84375 C 48.101562 -111.65625 43.90625 -101.132812 42.34375 -87.28125 L 39.234375 -90.921875 C 41.128906 -105.640625 46.273438 -117.066406 54.671875 -125.203125 C 63.078125 -133.347656 73.082031 -137.421875 84.6875 -137.421875 Z M 44.15625 -203.40625 L 44.15625 -13.515625 C 41.90625 -11.609375 39.609375 -9.65625 37.265625 -7.65625 C 34.929688 -5.664062 32.640625 -3.71875 30.390625 -1.8125 C 28.140625 0.09375 25.800781 2.082031 23.375 4.15625 L 18.96875 2.34375 C 19.65625 -0.0820312 20.128906 -2.550781 20.390625 -5.0625 C 20.648438 -7.570312 20.78125 -10.128906 20.78125 -12.734375 L 20.78125 -172.234375 C 20.78125 -180.023438 19.394531 -185.78125 16.625 -189.5 C 13.851562 -193.226562 8.660156 -195.09375 1.046875 -195.09375 L 1.046875 -200.546875 C 6.585938 -200.023438 11.953125 -199.765625 17.140625 -199.765625 C 22.160156 -199.765625 26.96875 -200.066406 31.5625 -200.671875 C 36.15625 -201.285156 40.351562 -202.195312 44.15625 -203.40625 Z M 44.15625 -203.40625 "/></g></g></g><g fill="#502108" fill-opacity="1"><g transform="translate(583.512012, 825.361253)"><g><path d="M 70.65625 -137.421875 C 85.894531 -137.421875 97.800781 -132.785156 106.375 -123.515625 C 114.945312 -114.253906 119.234375 -99.835938 119.234375 -80.265625 L 27.53125 -80.265625 L 27.28125 -85.203125 L 94.296875 -85.203125 C 94.640625 -93.691406 93.945312 -101.53125 92.21875 -108.71875 C 90.488281 -115.90625 87.757812 -121.660156 84.03125 -125.984375 C 80.3125 -130.316406 75.507812 -132.484375 69.625 -132.484375 C 61.65625 -132.484375 54.597656 -128.5 48.453125 -120.53125 C 42.304688 -112.570312 38.625 -99.929688 37.40625 -82.609375 L 38.1875 -81.578125 C 37.84375 -78.972656 37.582031 -76.113281 37.40625 -73 C 37.238281 -69.882812 37.15625 -66.765625 37.15625 -63.640625 C 37.15625 -51.867188 39.054688 -41.738281 42.859375 -33.25 C 46.671875 -24.757812 51.648438 -18.304688 57.796875 -13.890625 C 63.953125 -9.484375 70.316406 -7.28125 76.890625 -7.28125 C 82.085938 -7.28125 87.023438 -8.097656 91.703125 -9.734375 C 96.378906 -11.378906 100.707031 -14.109375 104.6875 -17.921875 C 108.675781 -21.734375 112.140625 -26.84375 115.078125 -33.25 L 120.28125 -31.171875 C 118.375 -25.453125 115.253906 -19.910156 110.921875 -14.546875 C 106.597656 -9.179688 101.144531 -4.804688 94.5625 -1.421875 C 87.976562 1.953125 80.359375 3.640625 71.703125 3.640625 C 59.234375 3.640625 48.535156 0.78125 39.609375 -4.9375 C 30.691406 -10.65625 23.851562 -18.578125 19.09375 -28.703125 C 14.332031 -38.835938 11.953125 -50.484375 11.953125 -63.640625 C 11.953125 -78.878906 14.375 -92 19.21875 -103 C 24.070312 -114 30.914062 -122.484375 39.75 -128.453125 C 48.582031 -134.429688 58.882812 -137.421875 70.65625 -137.421875 Z M 70.65625 -137.421875 "/></g></g></g><g fill="#502108" fill-opacity="1"><g transform="translate(701.973698, 825.361253)"><g><path d="M 44.421875 1.8125 C 37.316406 1.8125 31.164062 0.472656 25.96875 -2.203125 C 20.78125 -4.890625 16.84375 -8.65625 14.15625 -13.5 C 11.46875 -18.351562 10.125 -23.984375 10.125 -30.390625 C 10.125 -38.015625 11.898438 -44.25 15.453125 -49.09375 C 19.003906 -53.945312 23.550781 -57.84375 29.09375 -60.78125 C 34.632812 -63.726562 40.476562 -66.195312 46.625 -68.1875 C 52.78125 -70.1875 58.628906 -72.09375 64.171875 -73.90625 C 69.710938 -75.726562 74.253906 -77.847656 77.796875 -80.265625 C 81.347656 -82.691406 83.125 -85.898438 83.125 -89.890625 L 83.125 -105.984375 C 83.125 -113.265625 82.039062 -118.804688 79.875 -122.609375 C 77.71875 -126.421875 74.816406 -128.976562 71.171875 -130.28125 C 67.535156 -131.582031 63.46875 -132.234375 58.96875 -132.234375 C 54.632812 -132.234375 50 -131.625 45.0625 -130.40625 C 40.132812 -129.195312 36.195312 -126.6875 33.25 -122.875 C 36.539062 -122.1875 39.398438 -120.457031 41.828125 -117.6875 C 44.253906 -114.914062 45.46875 -111.363281 45.46875 -107.03125 C 45.46875 -102.695312 44.082031 -99.273438 41.3125 -96.765625 C 38.539062 -94.253906 34.988281 -93 30.65625 -93 C 25.632812 -93 21.953125 -94.597656 19.609375 -97.796875 C 17.273438 -101.003906 16.109375 -104.601562 16.109375 -108.59375 C 16.109375 -113.09375 17.234375 -116.726562 19.484375 -119.5 C 21.734375 -122.269531 24.59375 -124.867188 28.0625 -127.296875 C 32.039062 -130.066406 37.191406 -132.445312 43.515625 -134.4375 C 49.835938 -136.425781 56.984375 -137.421875 64.953125 -137.421875 C 72.046875 -137.421875 78.101562 -136.597656 83.125 -134.953125 C 88.144531 -133.304688 92.300781 -130.925781 95.59375 -127.8125 C 100.101562 -123.65625 103.050781 -118.585938 104.4375 -112.609375 C 105.820312 -106.640625 106.515625 -99.5 106.515625 -91.1875 L 106.515625 -18.96875 C 106.515625 -14.632812 107.160156 -11.515625 108.453125 -9.609375 C 109.753906 -7.703125 111.789062 -6.75 114.5625 -6.75 C 116.46875 -6.75 118.285156 -7.179688 120.015625 -8.046875 C 121.742188 -8.921875 123.820312 -10.304688 126.25 -12.203125 L 129.109375 -7.796875 C 125.472656 -5.023438 122.007812 -2.726562 118.71875 -0.90625 C 115.425781 0.90625 111.007812 1.8125 105.46875 1.8125 C 100.445312 1.8125 96.289062 0.945312 93 -0.78125 C 89.707031 -2.507812 87.238281 -5.0625 85.59375 -8.4375 C 83.945312 -11.820312 83.125 -16.109375 83.125 -21.296875 C 78.445312 -13.503906 72.859375 -7.703125 66.359375 -3.890625 C 59.867188 -0.0859375 52.554688 1.8125 44.421875 1.8125 Z M 53.78125 -8.578125 C 59.488281 -8.578125 64.8125 -10.21875 69.75 -13.5 C 74.6875 -16.789062 79.144531 -21.726562 83.125 -28.3125 L 83.125 -79.234375 C 81.050781 -76.285156 78.019531 -73.816406 74.03125 -71.828125 C 70.050781 -69.835938 65.722656 -67.84375 61.046875 -65.84375 C 56.367188 -63.851562 51.910156 -61.515625 47.671875 -58.828125 C 43.429688 -56.148438 39.925781 -52.644531 37.15625 -48.3125 C 34.382812 -43.988281 33 -38.363281 33 -31.4375 C 33 -24.507812 34.859375 -18.96875 38.578125 -14.8125 C 42.296875 -10.65625 47.363281 -8.578125 53.78125 -8.578125 Z M 53.78125 -8.578125 "/></g></g></g><g fill="#502108" fill-opacity="1"><g transform="translate(818.357126, 825.361253)"><g><path d="M 94.8125 -137.421875 C 101.394531 -137.421875 106.894531 -136.554688 111.3125 -134.828125 C 115.726562 -133.097656 119.410156 -130.671875 122.359375 -127.546875 C 125.648438 -124.085938 127.988281 -119.757812 129.375 -114.5625 C 130.757812 -109.363281 131.453125 -102.347656 131.453125 -93.515625 L 131.453125 -24.15625 C 131.453125 -16.882812 132.96875 -11.945312 136 -9.34375 C 139.03125 -6.75 144.09375 -5.453125 151.1875 -5.453125 L 151.1875 0 C 148.25 -0.175781 143.75 -0.394531 137.6875 -0.65625 C 131.625 -0.914062 125.734375 -1.046875 120.015625 -1.046875 C 114.304688 -1.046875 108.722656 -0.914062 103.265625 -0.65625 C 97.804688 -0.394531 93.691406 -0.175781 90.921875 0 L 90.921875 -5.453125 C 97.160156 -5.453125 101.578125 -6.75 104.171875 -9.34375 C 106.765625 -11.945312 108.0625 -16.882812 108.0625 -24.15625 L 108.0625 -99.234375 C 108.0625 -104.609375 107.628906 -109.546875 106.765625 -114.046875 C 105.898438 -118.546875 103.953125 -122.179688 100.921875 -124.953125 C 97.890625 -127.722656 93.257812 -129.109375 87.03125 -129.109375 C 79.75 -129.109375 73.378906 -127.03125 67.921875 -122.875 C 62.472656 -118.71875 58.234375 -113.046875 55.203125 -105.859375 C 52.171875 -98.671875 50.65625 -90.660156 50.65625 -81.828125 L 50.65625 -24.15625 C 50.65625 -16.882812 51.953125 -11.945312 54.546875 -9.34375 C 57.148438 -6.75 61.566406 -5.453125 67.796875 -5.453125 L 67.796875 0 C 65.023438 -0.175781 60.910156 -0.394531 55.453125 -0.65625 C 50.003906 -0.914062 44.421875 -1.046875 38.703125 -1.046875 C 32.992188 -1.046875 27.109375 -0.914062 21.046875 -0.65625 C 14.984375 -0.394531 10.476562 -0.175781 7.53125 0 L 7.53125 -5.453125 C 14.632812 -5.453125 19.703125 -6.75 22.734375 -9.34375 C 25.765625 -11.945312 27.28125 -16.882812 27.28125 -24.15625 L 27.28125 -105.46875 C 27.28125 -113.257812 25.894531 -119.015625 23.125 -122.734375 C 20.351562 -126.460938 15.15625 -128.328125 7.53125 -128.328125 L 7.53125 -133.78125 C 13.070312 -133.269531 18.441406 -133.015625 23.640625 -133.015625 C 28.660156 -133.015625 33.460938 -133.316406 38.046875 -133.921875 C 42.640625 -134.523438 46.84375 -135.429688 50.65625 -136.640625 L 50.65625 -105.984375 C 55.15625 -117.765625 61.429688 -125.945312 69.484375 -130.53125 C 77.546875 -135.125 85.988281 -137.421875 94.8125 -137.421875 Z M 94.8125 -137.421875 "/></g></g></g><g fill="#502108" fill-opacity="1"><g transform="translate(960.459179, 825.361253)"><g><path d="M 70.65625 -137.421875 C 85.894531 -137.421875 97.800781 -132.785156 106.375 -123.515625 C 114.945312 -114.253906 119.234375 -99.835938 119.234375 -80.265625 L 27.53125 -80.265625 L 27.28125 -85.203125 L 94.296875 -85.203125 C 94.640625 -93.691406 93.945312 -101.53125 92.21875 -108.71875 C 90.488281 -115.90625 87.757812 -121.660156 84.03125 -125.984375 C 80.3125 -130.316406 75.507812 -132.484375 69.625 -132.484375 C 61.65625 -132.484375 54.597656 -128.5 48.453125 -120.53125 C 42.304688 -112.570312 38.625 -99.929688 37.40625 -82.609375 L 38.1875 -81.578125 C 37.84375 -78.972656 37.582031 -76.113281 37.40625 -73 C 37.238281 -69.882812 37.15625 -66.765625 37.15625 -63.640625 C 37.15625 -51.867188 39.054688 -41.738281 42.859375 -33.25 C 46.671875 -24.757812 51.648438 -18.304688 57.796875 -13.890625 C 63.953125 -9.484375 70.316406 -7.28125 76.890625 -7.28125 C 82.085938 -7.28125 87.023438 -8.097656 91.703125 -9.734375 C 96.378906 -11.378906 100.707031 -14.109375 104.6875 -17.921875 C 108.675781 -21.734375 112.140625 -26.84375 115.078125 -33.25 L 120.28125 -31.171875 C 118.375 -25.453125 115.253906 -19.910156 110.921875 -14.546875 C 106.597656 -9.179688 101.144531 -4.804688 94.5625 -1.421875 C 87.976562 1.953125 80.359375 3.640625 71.703125 3.640625 C 59.234375 3.640625 48.535156 0.78125 39.609375 -4.9375 C 30.691406 -10.65625 23.851562 -18.578125 19.09375 -28.703125 C 14.332031 -38.835938 11.953125 -50.484375 11.953125 -63.640625 C 11.953125 -78.878906 14.375 -92 19.21875 -103 C 24.070312 -114 30.914062 -122.484375 39.75 -128.453125 C 48.582031 -134.429688 58.882812 -137.421875 70.65625 -137.421875 Z M 70.65625 -137.421875 "/></g></g></g><g fill="#502108" fill-opacity="1"><g transform="translate(1078.920854, 825.361253)"><g><path d="M 125.734375 -203.671875 L 125.734375 -28.3125 C 125.734375 -20.519531 127.160156 -14.757812 130.015625 -11.03125 C 132.878906 -7.3125 138.035156 -5.453125 145.484375 -5.453125 L 145.484375 0 C 140.109375 -0.519531 134.738281 -0.78125 129.375 -0.78125 C 124.351562 -0.78125 119.546875 -0.519531 114.953125 0 C 110.359375 0.519531 106.160156 1.472656 102.359375 2.859375 L 102.359375 -172.5 C 102.359375 -180.289062 100.972656 -186.046875 98.203125 -189.765625 C 95.429688 -193.492188 90.234375 -195.359375 82.609375 -195.359375 L 82.609375 -200.8125 C 88.148438 -200.289062 93.519531 -200.03125 98.71875 -200.03125 C 103.738281 -200.03125 108.539062 -200.332031 113.125 -200.9375 C 117.71875 -201.539062 121.921875 -202.453125 125.734375 -203.671875 Z M 71.1875 -137.421875 C 78.800781 -137.421875 85.941406 -135.601562 92.609375 -131.96875 C 99.273438 -128.332031 103.734375 -122.097656 105.984375 -113.265625 L 102.609375 -110.671875 C 100.191406 -117.941406 96.425781 -123.222656 91.3125 -126.515625 C 86.207031 -129.804688 80.191406 -131.453125 73.265625 -131.453125 C 63.046875 -131.453125 54.515625 -126.164062 47.671875 -115.59375 C 40.828125 -105.03125 37.492188 -88.753906 37.671875 -66.765625 C 37.671875 -52.734375 39.007812 -41.082031 41.6875 -31.8125 C 44.375 -22.550781 48.359375 -15.625 53.640625 -11.03125 C 58.921875 -6.445312 65.375 -4.15625 73 -4.15625 C 80.269531 -4.15625 86.847656 -7.269531 92.734375 -13.5 C 98.628906 -19.738281 102.179688 -28.921875 103.390625 -41.046875 L 106.515625 -37.40625 C 105.128906 -24.25 100.925781 -14.117188 93.90625 -7.015625 C 86.894531 0.0859375 77.414062 3.640625 65.46875 3.640625 C 54.726562 3.640625 45.332031 1.039062 37.28125 -4.15625 C 29.226562 -9.351562 23.078125 -17.144531 18.828125 -27.53125 C 14.585938 -37.925781 12.46875 -51.003906 12.46875 -66.765625 C 12.46875 -82.523438 15.191406 -95.644531 20.640625 -106.125 C 26.097656 -116.601562 33.285156 -124.4375 42.203125 -129.625 C 51.128906 -134.820312 60.789062 -137.421875 71.1875 -137.421875 Z M 71.1875 -137.421875 "/></g></g></g><g fill="#502108" fill-opacity="1"><g transform="translate(1216.86637, 825.361253)"><g><path d="M 32.734375 -29.609375 C 37.234375 -29.609375 41.128906 -27.960938 44.421875 -24.671875 C 47.710938 -21.390625 49.359375 -17.492188 49.359375 -12.984375 C 49.359375 -8.484375 47.710938 -4.585938 44.421875 -1.296875 C 41.128906 1.992188 37.234375 3.640625 32.734375 3.640625 C 28.234375 3.640625 24.335938 1.992188 21.046875 -1.296875 C 17.753906 -4.585938 16.109375 -8.484375 16.109375 -12.984375 C 16.109375 -17.492188 17.753906 -21.390625 21.046875 -24.671875 C 24.335938 -27.960938 28.234375 -29.609375 32.734375 -29.609375 Z M 32.734375 -29.609375 "/></g></g></g></svg>