<svg xmlns="http://www.w3.org/2000/svg" xmlns:xlink="http://www.w3.org/1999/xlink" width="2000" zoomAndPan="magnify" viewBox="0 0 1500 1499.999933" height="2000" preserveAspectRatio="xMidYMid meet" version="1.0"><defs><clipPath id="69e3a9705c"><path d="M 83 97 L 1151 97 L 1151 1072 L 83 1072 Z M 83 97 " clip-rule="nonzero"/></clipPath><clipPath id="21968020ad"><path d="M 491.621094 -150.46875 L 1603.328125 363.460938 L 1009.773438 1647.402344 L -101.929688 1133.472656 Z M 491.621094 -150.46875 " clip-rule="nonzero"/></clipPath><clipPath id="8081ecef2f"><path d="M 491.621094 -150.46875 L 1603.328125 363.460938 L 1009.773438 1647.402344 L -101.929688 1133.472656 Z M 491.621094 -150.46875 " clip-rule="nonzero"/></clipPath><clipPath id="0b93517d36"><path d="M 238 280 L 1417 280 L 1417 1403 L 238 1403 Z M 238 280 " clip-rule="nonzero"/></clipPath><clipPath id="d3863df2d5"><path d="M 491.621094 -150.46875 L 1603.328125 363.460938 L 1009.773438 1647.402344 L -101.929688 1133.472656 Z M 491.621094 -150.46875 " clip-rule="nonzero"/></clipPath><clipPath id="aa99de69bb"><path d="M 491.621094 -150.46875 L 1603.328125 363.460938 L 1009.773438 1647.402344 L -101.929688 1133.472656 Z M 491.621094 -150.46875 " clip-rule="nonzero"/></clipPath></defs><g clip-path="url(#69e3a9705c)"><g clip-path="url(#21968020ad)"><g clip-path="url(#8081ecef2f)"><path fill="#000000" d="M 156.207031 575.878906 C 215.039062 456.792969 302.625 352.769531 413.898438 268.945312 C 543.304688 171.464844 689.507812 115.171875 850.480469 100.015625 C 944.757812 91.148438 1037.628906 101.0625 1124.617188 142.238281 C 1159.074219 158.53125 1159.042969 197.410156 1125.53125 219.082031 C 1029.074219 281.480469 976.085938 374.351562 934.613281 478.332031 C 895.824219 575.636719 854.738281 673.042969 803.15625 763.824219 C 772.171875 818.320312 720.980469 862.148438 675.316406 907.160156 C 642.714844 939.308594 606.601562 969.3125 567.8125 993.449219 C 469.25 1054.832031 360.296875 1080.402344 244.648438 1068.851562 C 211.011719 1065.488281 175.671875 1055.625 146.085938 1039.578125 C 95.472656 1012.117188 92.894531 957.226562 87.324219 907.675781 C 75.753906 804.546875 91.800781 731.644531 156.207031 575.878906 Z M 156.207031 575.878906 " fill-opacity="1" fill-rule="nonzero"/></g></g></g><g clip-path="url(#0b93517d36)"><g clip-path="url(#d3863df2d5)"><g clip-path="url(#aa99de69bb)"><path fill="#000000" d="M 1350.050781 910.144531 C 1245.402344 1121.554688 1076.199219 1285.625 830.554688 1365.53125 C 716.335938 1402.664062 601.074219 1414.296875 482.96875 1388.65625 C 398.890625 1370.421875 322.511719 1335.796875 257.933594 1278.59375 C 246.5 1268.4375 235.148438 1245.574219 239.257812 1234.078125 C 243.316406 1222.601562 266.59375 1211.925781 281.847656 1211.375 C 376.859375 1207.878906 467.933594 1192.101562 556.515625 1154.21875 C 636.457031 1120.066406 706.765625 1072.125 767.511719 1013.371094 C 840.953125 942.382812 907.523438 863.71875 947.519531 766.851562 C 990.398438 662.957031 1032.632812 558.722656 1078.03125 455.90625 C 1105.3125 394.109375 1147.667969 340.246094 1205.414062 306.167969 C 1285.238281 259.046875 1320.667969 277.679688 1359.996094 361.824219 C 1443.324219 540.03125 1429.292969 716.027344 1350.050781 910.144531 Z M 1350.050781 910.144531 " fill-opacity="1" fill-rule="nonzero"/></g></g></g></svg>