<svg xmlns="http://www.w3.org/2000/svg" xmlns:xlink="http://www.w3.org/1999/xlink" width="2000" zoomAndPan="magnify" viewBox="0 0 1500 1499.999933" height="2000" preserveAspectRatio="xMidYMid meet" version="1.0"><defs><clipPath id="ab6d9ed4dd"><path d="M 54.78125 48.285156 L 1445.21875 48.285156 L 1445.21875 1438.71875 L 54.78125 1438.71875 Z M 54.78125 48.285156 " clip-rule="nonzero"/></clipPath><clipPath id="50e603209a"><path d="M 750 48.285156 C 366.042969 48.285156 54.78125 359.542969 54.78125 743.503906 C 54.78125 1127.460938 366.042969 1438.71875 750 1438.71875 C 1133.957031 1438.71875 1445.21875 1127.460938 1445.21875 743.503906 C 1445.21875 359.542969 1133.957031 48.285156 750 48.285156 Z M 750 48.285156 " clip-rule="nonzero"/></clipPath><clipPath id="1f5796f4b1"><path d="M 0.78125 0.285156 L 1391.21875 0.285156 L 1391.21875 1390.71875 L 0.78125 1390.71875 Z M 0.78125 0.285156 " clip-rule="nonzero"/></clipPath><clipPath id="df18588a3b"><path d="M 696 0.285156 C 312.042969 0.285156 0.78125 311.542969 0.78125 695.503906 C 0.78125 1079.460938 312.042969 1390.71875 696 1390.71875 C 1079.957031 1390.71875 1391.21875 1079.460938 1391.21875 695.503906 C 1391.21875 311.542969 1079.957031 0.285156 696 0.285156 Z M 696 0.285156 " clip-rule="nonzero"/></clipPath><clipPath id="5d368dba3f"><rect x="0" width="1392" y="0" height="1391"/></clipPath><clipPath id="45181ee394"><path d="M 216 207 L 1031 207 L 1031 1049 L 216 1049 Z M 216 207 " clip-rule="nonzero"/></clipPath><clipPath id="4564f91c6c"><path d="M 471.820312 41.542969 L 1411.691406 373.4375 L 1028.601562 1458.285156 L 88.730469 1126.390625 Z M 471.820312 41.542969 " clip-rule="nonzero"/></clipPath><clipPath id="4816afa354"><path d="M 471.820312 41.542969 L 1411.691406 373.4375 L 1028.601562 1458.285156 L 88.730469 1126.390625 Z M 471.820312 41.542969 " clip-rule="nonzero"/></clipPath><clipPath id="3385c13a46"><path d="M 372 331 L 1281 331 L 1281 1293 L 372 1293 Z M 372 331 " clip-rule="nonzero"/></clipPath><clipPath id="597203425e"><path d="M 471.820312 41.542969 L 1411.691406 373.4375 L 1028.601562 1458.285156 L 88.730469 1126.390625 Z M 471.820312 41.542969 " clip-rule="nonzero"/></clipPath><clipPath id="4b50cdda25"><path d="M 471.820312 41.542969 L 1411.691406 373.4375 L 1028.601562 1458.285156 L 88.730469 1126.390625 Z M 471.820312 41.542969 " clip-rule="nonzero"/></clipPath></defs><g clip-path="url(#ab6d9ed4dd)"><g clip-path="url(#50e603209a)"><g transform="matrix(1, 0, 0, 1, 54, 48)"><g clip-path="url(#5d368dba3f)"><g clip-path="url(#1f5796f4b1)"><g clip-path="url(#df18588a3b)"><path fill="#000000" d="M 0.78125 0.285156 L 1391.21875 0.285156 L 1391.21875 1390.71875 L 0.78125 1390.71875 Z M 0.78125 0.285156 " fill-opacity="1" fill-rule="nonzero"/></g></g></g></g></g></g><g clip-path="url(#45181ee394)"><g clip-path="url(#4564f91c6c)"><g clip-path="url(#4816afa354)"><path fill="#ffffff" d="M 255.324219 655.457031 C 293.929688 554.511719 356.976562 463.582031 440.742188 387.21875 C 538.164062 298.410156 652.324219 241.695312 781.578125 217.179688 C 857.273438 202.828125 933.265625 203.800781 1006.863281 230.546875 C 1036.015625 241.125 1038.945312 272.621094 1013.445312 292.726562 C 940.050781 350.605469 904.183594 429.867188 878.492188 517.257812 C 854.46875 599.03125 828.585938 681.0625 793.703125 758.527344 C 772.746094 805.03125 734.605469 844.425781 701.035156 884.363281 C 677.070312 912.882812 650.097656 939.933594 620.507812 962.4375 C 545.328125 1019.65625 459.007812 1048.652344 364.445312 1048.085938 C 336.941406 1047.917969 307.5625 1042.617188 282.375 1031.863281 C 239.285156 1013.464844 233.023438 969.199219 224.746094 929.480469 C 207.53125 846.816406 214.988281 786.535156 255.324219 655.457031 Z M 255.324219 655.457031 " fill-opacity="1" fill-rule="nonzero"/></g></g></g><g clip-path="url(#3385c13a46)"><g clip-path="url(#597203425e)"><g clip-path="url(#4b50cdda25)"><path fill="#ffffff" d="M 1247.867188 835.484375 C 1179.160156 1014.703125 1054.5625 1160.480469 861.640625 1243.886719 C 771.933594 1282.648438 679.445312 1300.835938 581.820312 1289.042969 C 512.324219 1280.664062 447.816406 1258.417969 391.152344 1216.988281 C 381.117188 1209.632812 370.183594 1191.972656 372.640625 1182.347656 C 375.054688 1172.742188 393.097656 1162.324219 405.417969 1160.71875 C 482.117188 1150.660156 554.699219 1130.957031 623.578125 1093.535156 C 685.742188 1059.789062 739.054688 1015.609375 783.796875 963.394531 C 837.894531 900.304688 885.84375 831.515625 910.878906 750.007812 C 937.71875 662.578125 964.007812 574.929688 992.96875 488.1875 C 1010.371094 436.050781 1040.589844 389.199219 1084.78125 357.199219 C 1145.859375 312.960938 1175.980469 325.359375 1214.238281 390.535156 C 1295.289062 528.566406 1297.300781 672.207031 1247.867188 835.484375 Z M 1247.867188 835.484375 " fill-opacity="1" fill-rule="nonzero"/></g></g></g></svg>