<svg xmlns="http://www.w3.org/2000/svg" xmlns:xlink="http://www.w3.org/1999/xlink" width="1899" zoomAndPan="magnify" viewBox="0 0 1424.25 627.000003" height="836" preserveAspectRatio="xMidYMid meet" version="1.0"><defs><g/><clipPath id="edce98a90e"><path d="M 37.371094 160.632812 L 218 160.632812 L 218 459 L 37.371094 459 Z M 37.371094 160.632812 " clip-rule="nonzero"/></clipPath><clipPath id="7ccf80cd0e"><path d="M 122 174 L 334.648438 174 L 334.648438 504.335938 L 122 504.335938 Z M 122 174 " clip-rule="nonzero"/></clipPath><clipPath id="fb7bad806f"><rect x="0" width="1006" y="0" height="426"/></clipPath></defs><g clip-path="url(#edce98a90e)"><path fill="#f04c24" d="M 37.453125 354.890625 C 38.285156 322.648438 46.992188 290.800781 62.972656 260.988281 C 81.5625 226.320312 108.050781 199.015625 141.980469 179.277344 C 161.855469 167.714844 183.335938 160.4375 206.703125 160.652344 C 215.957031 160.730469 219.910156 169.304688 214.734375 177.492188 C 199.832031 201.074219 197.617188 226.941406 199.070312 254.082031 C 200.433594 279.480469 201.304688 305.132812 199.183594 330.398438 C 197.90625 345.5625 191.089844 360.4375 185.613281 375.011719 C 181.703125 385.417969 176.800781 395.710938 170.710938 404.984375 C 155.242188 428.554688 133.835938 445.289062 107.171875 454.527344 C 99.414062 457.210938 90.621094 458.640625 82.464844 458.117188 C 68.511719 457.222656 62.351562 445.386719 56.078125 435.03125 C 43.019531 413.484375 39.128906 395.78125 37.453125 354.890625 Z M 37.453125 354.890625 " fill-opacity="1" fill-rule="nonzero"/></g><g clip-path="url(#7ccf80cd0e)"><path fill="#f04c24" d="M 334.625 306.925781 C 333.101562 364.179688 312.527344 417.578125 266.527344 460.21875 C 245.136719 480.039062 220.921875 494.34375 192.277344 500.726562 C 171.890625 505.273438 151.527344 505.425781 131.46875 499.398438 C 127.914062 498.324219 123.082031 494.441406 122.816406 491.492188 C 122.542969 488.546875 126.585938 483.824219 129.890625 482.148438 C 150.472656 471.695312 168.9375 458.941406 184.601562 441.566406 C 198.742188 425.894531 209.351562 408.164062 216.753906 389.027344 C 225.707031 365.898438 232.363281 341.777344 231.308594 316.355469 C 230.175781 289.089844 228.863281 261.8125 228.394531 234.527344 C 228.109375 218.128906 231.957031 201.941406 241.210938 188.546875 C 254.003906 170.03125 263.707031 170.527344 280.949219 185.0625 C 317.472656 215.851562 332.3125 256.070312 334.625 306.925781 Z M 334.625 306.925781 " fill-opacity="1" fill-rule="nonzero"/></g><g transform="matrix(1, 0, 0, 1, 384, 100)"><g clip-path="url(#fb7bad806f)"><g fill="#f04c24" fill-opacity="1"><g transform="translate(0.949177, 344.917159)"><g><path d="M 103.8125 -168.4375 C 121.21875 -168.4375 135.648438 -161.269531 147.109375 -146.9375 C 158.578125 -132.613281 164.3125 -110.910156 164.3125 -81.828125 C 164.3125 -62.722656 161.070312 -46.75 154.59375 -33.90625 C 148.113281 -21.0625 139.460938 -11.457031 128.640625 -5.09375 C 117.816406 1.269531 106.035156 4.453125 93.296875 4.453125 C 82.679688 4.453125 72.4375 1.429688 62.5625 -4.609375 C 52.695312 -10.660156 45.320312 -19.632812 40.4375 -31.53125 L 46.8125 -28.015625 C 52.113281 -19.523438 58.691406 -13.207031 66.546875 -9.0625 C 74.398438 -4.925781 82.46875 -2.859375 90.75 -2.859375 C 104.96875 -2.859375 115.632812 -9.28125 122.75 -22.125 C 129.863281 -34.96875 133.421875 -54.867188 133.421875 -81.828125 C 133.421875 -99.023438 132.039062 -113.351562 129.28125 -124.8125 C 126.519531 -136.28125 122.269531 -144.828125 116.53125 -150.453125 C 110.800781 -156.078125 103.484375 -158.890625 94.578125 -158.890625 C 84.804688 -158.890625 75.726562 -154.484375 67.34375 -145.671875 C 58.957031 -136.867188 53.8125 -123.972656 51.90625 -106.984375 L 48.078125 -111.453125 C 50.410156 -129.492188 56.722656 -143.5 67.015625 -153.46875 C 77.316406 -163.445312 89.582031 -168.4375 103.8125 -168.4375 Z M 54.125 -249.328125 L 54.125 -16.5625 C 51.375 -14.226562 48.5625 -11.835938 45.6875 -9.390625 C 42.820312 -6.953125 40.007812 -4.5625 37.25 -2.21875 C 34.488281 0.113281 31.625 2.550781 28.65625 5.09375 L 23.25 2.859375 C 24.09375 -0.109375 24.671875 -3.128906 24.984375 -6.203125 C 25.304688 -9.285156 25.46875 -12.421875 25.46875 -15.609375 L 25.46875 -211.109375 C 25.46875 -220.660156 23.769531 -227.71875 20.375 -232.28125 C 16.976562 -236.851562 10.613281 -239.140625 1.28125 -239.140625 L 1.28125 -245.828125 C 8.070312 -245.179688 14.648438 -244.859375 21.015625 -244.859375 C 27.171875 -244.859375 33.0625 -245.226562 38.6875 -245.96875 C 44.3125 -246.71875 49.457031 -247.835938 54.125 -249.328125 Z M 54.125 -249.328125 "/></g></g></g><g fill="#f04c24" fill-opacity="1"><g transform="translate(164.297977, 344.917159)"><g><path d="M 86.609375 -168.4375 C 105.285156 -168.4375 119.878906 -162.757812 130.390625 -151.40625 C 140.898438 -140.050781 146.15625 -122.378906 146.15625 -98.390625 L 33.75 -98.390625 L 33.4375 -104.4375 L 115.59375 -104.4375 C 116.007812 -114.84375 115.15625 -124.445312 113.03125 -133.25 C 110.914062 -142.0625 107.570312 -149.117188 103 -154.421875 C 98.4375 -159.734375 92.550781 -162.390625 85.34375 -162.390625 C 75.570312 -162.390625 66.914062 -157.503906 59.375 -147.734375 C 51.84375 -137.972656 47.335938 -122.484375 45.859375 -101.265625 L 46.8125 -99.984375 C 46.382812 -96.796875 46.0625 -93.289062 45.84375 -89.46875 C 45.632812 -85.65625 45.53125 -81.835938 45.53125 -78.015625 C 45.53125 -63.578125 47.863281 -51.15625 52.53125 -40.75 C 57.207031 -30.351562 63.3125 -22.445312 70.84375 -17.03125 C 78.382812 -11.625 86.1875 -8.921875 94.25 -8.921875 C 100.625 -8.921875 106.675781 -9.925781 112.40625 -11.9375 C 118.132812 -13.957031 123.4375 -17.300781 128.3125 -21.96875 C 133.195312 -26.632812 137.445312 -32.898438 141.0625 -40.765625 L 147.421875 -38.203125 C 145.085938 -31.203125 141.265625 -24.410156 135.953125 -17.828125 C 130.648438 -11.242188 123.96875 -5.882812 115.90625 -1.75 C 107.84375 2.382812 98.503906 4.453125 87.890625 4.453125 C 72.597656 4.453125 59.484375 0.953125 48.546875 -6.046875 C 37.617188 -13.054688 29.234375 -22.769531 23.390625 -35.1875 C 17.554688 -47.601562 14.640625 -61.878906 14.640625 -78.015625 C 14.640625 -96.691406 17.613281 -112.769531 23.5625 -126.25 C 29.507812 -139.726562 37.894531 -150.128906 48.71875 -157.453125 C 59.539062 -164.773438 72.171875 -168.4375 86.609375 -168.4375 Z M 86.609375 -168.4375 "/></g></g></g><g fill="#f04c24" fill-opacity="1"><g transform="translate(309.496907, 344.917159)"><g><path d="M 54.453125 2.234375 C 45.742188 2.234375 38.207031 0.585938 31.84375 -2.703125 C 25.476562 -5.992188 20.648438 -10.609375 17.359375 -16.546875 C 14.066406 -22.492188 12.421875 -29.394531 12.421875 -37.25 C 12.421875 -46.59375 14.59375 -54.234375 18.9375 -60.171875 C 23.289062 -66.117188 28.863281 -70.894531 35.65625 -74.5 C 42.457031 -78.113281 49.625 -81.140625 57.15625 -83.578125 C 64.6875 -86.023438 71.847656 -88.363281 78.640625 -90.59375 C 85.441406 -92.820312 91.015625 -95.421875 95.359375 -98.390625 C 99.710938 -101.359375 101.890625 -105.285156 101.890625 -110.171875 L 101.890625 -129.921875 C 101.890625 -138.835938 100.5625 -145.628906 97.90625 -150.296875 C 95.257812 -154.960938 91.707031 -158.09375 87.25 -159.6875 C 82.789062 -161.28125 77.800781 -162.078125 72.28125 -162.078125 C 66.976562 -162.078125 61.300781 -161.332031 55.25 -159.84375 C 49.195312 -158.363281 44.367188 -155.285156 40.765625 -150.609375 C 44.796875 -149.765625 48.296875 -147.644531 51.265625 -144.25 C 54.234375 -140.851562 55.71875 -136.5 55.71875 -131.1875 C 55.71875 -125.882812 54.019531 -121.691406 50.625 -118.609375 C 47.226562 -115.535156 42.878906 -114 37.578125 -114 C 31.421875 -114 26.90625 -115.960938 24.03125 -119.890625 C 21.164062 -123.816406 19.734375 -128.21875 19.734375 -133.09375 C 19.734375 -138.613281 21.113281 -143.070312 23.875 -146.46875 C 26.632812 -149.863281 30.140625 -153.050781 34.390625 -156.03125 C 39.273438 -159.425781 45.585938 -162.34375 53.328125 -164.78125 C 61.078125 -167.21875 69.835938 -168.4375 79.609375 -168.4375 C 88.304688 -168.4375 95.734375 -167.425781 101.890625 -165.40625 C 108.046875 -163.394531 113.140625 -160.476562 117.171875 -156.65625 C 122.691406 -151.5625 126.300781 -145.351562 128 -138.03125 C 129.695312 -130.707031 130.546875 -121.953125 130.546875 -111.765625 L 130.546875 -23.25 C 130.546875 -17.9375 131.34375 -14.113281 132.9375 -11.78125 C 134.53125 -9.445312 137.023438 -8.28125 140.421875 -8.28125 C 142.753906 -8.28125 144.984375 -8.8125 147.109375 -9.875 C 149.234375 -10.9375 151.78125 -12.632812 154.75 -14.96875 L 158.25 -9.546875 C 153.789062 -6.148438 149.546875 -3.335938 145.515625 -1.109375 C 141.484375 1.117188 136.070312 2.234375 129.28125 2.234375 C 123.125 2.234375 118.023438 1.171875 113.984375 -0.953125 C 109.953125 -3.078125 106.925781 -6.207031 104.90625 -10.34375 C 102.894531 -14.488281 101.890625 -19.742188 101.890625 -26.109375 C 96.160156 -16.554688 89.316406 -9.441406 81.359375 -4.765625 C 73.398438 -0.0976562 64.429688 2.234375 54.453125 2.234375 Z M 65.90625 -10.515625 C 72.914062 -10.515625 79.445312 -12.53125 85.5 -16.5625 C 91.550781 -20.59375 97.015625 -26.640625 101.890625 -34.703125 L 101.890625 -97.125 C 99.347656 -93.507812 95.632812 -90.476562 90.75 -88.03125 C 85.863281 -85.59375 80.554688 -83.15625 74.828125 -80.71875 C 69.097656 -78.28125 63.628906 -75.414062 58.421875 -72.125 C 53.222656 -68.832031 48.925781 -64.53125 45.53125 -59.21875 C 42.132812 -53.914062 40.4375 -47.019531 40.4375 -38.53125 C 40.4375 -30.039062 42.71875 -23.25 47.28125 -18.15625 C 51.84375 -13.0625 58.050781 -10.515625 65.90625 -10.515625 Z M 65.90625 -10.515625 "/></g></g></g><g fill="#f04c24" fill-opacity="1"><g transform="translate(452.148507, 344.917159)"><g><path d="M 116.21875 -168.4375 C 124.289062 -168.4375 131.03125 -167.375 136.4375 -165.25 C 141.851562 -163.132812 146.367188 -160.164062 149.984375 -156.34375 C 154.015625 -152.101562 156.878906 -146.796875 158.578125 -140.421875 C 160.273438 -134.054688 161.125 -125.457031 161.125 -114.625 L 161.125 -29.609375 C 161.125 -20.691406 162.976562 -14.640625 166.6875 -11.453125 C 170.40625 -8.273438 176.617188 -6.6875 185.328125 -6.6875 L 185.328125 0 C 181.710938 -0.207031 176.191406 -0.472656 168.765625 -0.796875 C 161.335938 -1.117188 154.117188 -1.28125 147.109375 -1.28125 C 140.109375 -1.28125 133.265625 -1.117188 126.578125 -0.796875 C 119.890625 -0.472656 114.847656 -0.207031 111.453125 0 L 111.453125 -6.6875 C 119.085938 -6.6875 124.5 -8.273438 127.6875 -11.453125 C 130.875 -14.640625 132.46875 -20.691406 132.46875 -29.609375 L 132.46875 -121.640625 C 132.46875 -128.222656 131.9375 -134.269531 130.875 -139.78125 C 129.8125 -145.300781 127.421875 -149.757812 123.703125 -153.15625 C 119.992188 -156.550781 114.316406 -158.25 106.671875 -158.25 C 97.753906 -158.25 89.953125 -155.703125 83.265625 -150.609375 C 76.578125 -145.515625 71.375 -138.5625 67.65625 -129.75 C 63.945312 -120.945312 62.09375 -111.128906 62.09375 -100.296875 L 62.09375 -29.609375 C 62.09375 -20.691406 63.679688 -14.640625 66.859375 -11.453125 C 70.046875 -8.273438 75.460938 -6.6875 83.109375 -6.6875 L 83.109375 0 C 79.710938 -0.207031 74.671875 -0.472656 67.984375 -0.796875 C 61.296875 -1.117188 54.445312 -1.28125 47.4375 -1.28125 C 40.4375 -1.28125 33.21875 -1.117188 25.78125 -0.796875 C 18.351562 -0.472656 12.835938 -0.207031 9.234375 0 L 9.234375 -6.6875 C 17.941406 -6.6875 24.148438 -8.273438 27.859375 -11.453125 C 31.578125 -14.640625 33.4375 -20.691406 33.4375 -29.609375 L 33.4375 -129.28125 C 33.4375 -138.832031 31.738281 -145.890625 28.34375 -150.453125 C 24.945312 -155.015625 18.578125 -157.296875 9.234375 -157.296875 L 9.234375 -163.984375 C 16.023438 -163.347656 22.601562 -163.03125 28.96875 -163.03125 C 35.125 -163.03125 41.015625 -163.398438 46.640625 -164.140625 C 52.273438 -164.890625 57.425781 -166.003906 62.09375 -167.484375 L 62.09375 -129.921875 C 67.613281 -144.347656 75.304688 -154.375 85.171875 -160 C 95.046875 -165.625 105.394531 -168.4375 116.21875 -168.4375 Z M 116.21875 -168.4375 "/></g></g></g><g fill="#f04c24" fill-opacity="1"><g transform="translate(626.323521, 344.917159)"><g><path d="M 86.609375 -168.4375 C 105.285156 -168.4375 119.878906 -162.757812 130.390625 -151.40625 C 140.898438 -140.050781 146.15625 -122.378906 146.15625 -98.390625 L 33.75 -98.390625 L 33.4375 -104.4375 L 115.59375 -104.4375 C 116.007812 -114.84375 115.15625 -124.445312 113.03125 -133.25 C 110.914062 -142.0625 107.570312 -149.117188 103 -154.421875 C 98.4375 -159.734375 92.550781 -162.390625 85.34375 -162.390625 C 75.570312 -162.390625 66.914062 -157.503906 59.375 -147.734375 C 51.84375 -137.972656 47.335938 -122.484375 45.859375 -101.265625 L 46.8125 -99.984375 C 46.382812 -96.796875 46.0625 -93.289062 45.84375 -89.46875 C 45.632812 -85.65625 45.53125 -81.835938 45.53125 -78.015625 C 45.53125 -63.578125 47.863281 -51.15625 52.53125 -40.75 C 57.207031 -30.351562 63.3125 -22.445312 70.84375 -17.03125 C 78.382812 -11.625 86.1875 -8.921875 94.25 -8.921875 C 100.625 -8.921875 106.675781 -9.925781 112.40625 -11.9375 C 118.132812 -13.957031 123.4375 -17.300781 128.3125 -21.96875 C 133.195312 -26.632812 137.445312 -32.898438 141.0625 -40.765625 L 147.421875 -38.203125 C 145.085938 -31.203125 141.265625 -24.410156 135.953125 -17.828125 C 130.648438 -11.242188 123.96875 -5.882812 115.90625 -1.75 C 107.84375 2.382812 98.503906 4.453125 87.890625 4.453125 C 72.597656 4.453125 59.484375 0.953125 48.546875 -6.046875 C 37.617188 -13.054688 29.234375 -22.769531 23.390625 -35.1875 C 17.554688 -47.601562 14.640625 -61.878906 14.640625 -78.015625 C 14.640625 -96.691406 17.613281 -112.769531 23.5625 -126.25 C 29.507812 -139.726562 37.894531 -150.128906 48.71875 -157.453125 C 59.539062 -164.773438 72.171875 -168.4375 86.609375 -168.4375 Z M 86.609375 -168.4375 "/></g></g></g><g fill="#f04c24" fill-opacity="1"><g transform="translate(771.522437, 344.917159)"><g><path d="M 154.109375 -249.640625 L 154.109375 -34.703125 C 154.109375 -25.148438 155.859375 -18.09375 159.359375 -13.53125 C 162.867188 -8.96875 169.1875 -6.6875 178.3125 -6.6875 L 178.3125 0 C 171.726562 -0.632812 165.148438 -0.953125 158.578125 -0.953125 C 152.421875 -0.953125 146.53125 -0.632812 140.90625 0 C 135.28125 0.632812 130.128906 1.800781 125.453125 3.5 L 125.453125 -211.4375 C 125.453125 -220.988281 123.753906 -228.046875 120.359375 -232.609375 C 116.960938 -237.171875 110.597656 -239.453125 101.265625 -239.453125 L 101.265625 -246.140625 C 108.054688 -245.503906 114.632812 -245.1875 121 -245.1875 C 127.15625 -245.1875 133.046875 -245.554688 138.671875 -246.296875 C 144.296875 -247.035156 149.441406 -248.148438 154.109375 -249.640625 Z M 87.25 -168.4375 C 96.59375 -168.4375 105.347656 -166.207031 113.515625 -161.75 C 121.691406 -157.300781 127.160156 -149.660156 129.921875 -138.828125 L 125.78125 -135.640625 C 122.800781 -144.554688 118.179688 -151.03125 111.921875 -155.0625 C 105.660156 -159.101562 98.285156 -161.125 89.796875 -161.125 C 77.273438 -161.125 66.820312 -154.648438 58.4375 -141.703125 C 50.050781 -128.753906 45.960938 -108.796875 46.171875 -81.828125 C 46.171875 -64.640625 47.816406 -50.363281 51.109375 -39 C 54.398438 -27.644531 59.28125 -19.15625 65.75 -13.53125 C 72.226562 -7.90625 80.132812 -5.09375 89.46875 -5.09375 C 98.382812 -5.09375 106.453125 -8.910156 113.671875 -16.546875 C 120.890625 -24.191406 125.242188 -35.445312 126.734375 -50.3125 L 130.546875 -45.859375 C 128.847656 -29.722656 123.703125 -17.300781 115.109375 -8.59375 C 106.515625 0.101562 94.894531 4.453125 80.25 4.453125 C 67.082031 4.453125 55.5625 1.269531 45.6875 -5.09375 C 35.820312 -11.457031 28.285156 -21.007812 23.078125 -33.75 C 17.878906 -46.488281 15.28125 -62.515625 15.28125 -81.828125 C 15.28125 -101.148438 18.625 -117.234375 25.3125 -130.078125 C 32 -142.921875 40.804688 -152.523438 51.734375 -158.890625 C 62.671875 -165.253906 74.507812 -168.4375 87.25 -168.4375 Z M 87.25 -168.4375 "/></g></g></g><g fill="#f04c24" fill-opacity="1"><g transform="translate(940.602768, 344.917159)"><g><path d="M 40.125 -36.296875 C 45.644531 -36.296875 50.421875 -34.28125 54.453125 -30.25 C 58.484375 -26.21875 60.5 -21.441406 60.5 -15.921875 C 60.5 -10.398438 58.484375 -5.625 54.453125 -1.59375 C 50.421875 2.4375 45.644531 4.453125 40.125 4.453125 C 34.601562 4.453125 29.820312 2.4375 25.78125 -1.59375 C 21.75 -5.625 19.734375 -10.398438 19.734375 -15.921875 C 19.734375 -21.441406 21.75 -26.21875 25.78125 -30.25 C 29.820312 -34.28125 34.601562 -36.296875 40.125 -36.296875 Z M 40.125 -36.296875 "/></g></g></g></g></g></svg>