<svg xmlns="http://www.w3.org/2000/svg" xmlns:xlink="http://www.w3.org/1999/xlink" width="2000" zoomAndPan="magnify" viewBox="0 0 1500 1499.999933" height="2000" preserveAspectRatio="xMidYMid meet" version="1.0"><defs><clipPath id="b74df429f9"><path d="M 37 111 L 1463 111 L 1463 1389 L 37 1389 Z M 37 111 " clip-rule="nonzero"/></clipPath><clipPath id="466dfbf240"><path d="M -206.660156 759.949219 L 1065.734375 -152.941406 L 1706.679688 740.414062 L 434.289062 1653.304688 Z M -206.660156 759.949219 " clip-rule="nonzero"/></clipPath><clipPath id="91a42a7e70"><path d="M -206.660156 759.949219 L 1065.734375 -152.941406 L 1706.679688 740.414062 L 434.289062 1653.304688 Z M -206.660156 759.949219 " clip-rule="nonzero"/></clipPath></defs><g clip-path="url(#b74df429f9)"><g clip-path="url(#466dfbf240)"><g clip-path="url(#91a42a7e70)"><path fill="#e15c31" d="M 1386.105469 293.613281 C 1391.347656 300.921875 1396.332031 308.410156 1401.058594 316.074219 C 1405.785156 323.742188 1410.246094 331.578125 1414.445312 339.582031 C 1418.644531 347.585938 1422.570312 355.75 1426.230469 364.078125 C 1429.890625 372.402344 1433.273438 380.875 1436.386719 389.5 C 1439.496094 398.125 1442.332031 406.890625 1444.886719 415.792969 C 1447.445312 424.699219 1449.722656 433.730469 1451.714844 442.894531 C 1453.710938 452.054688 1455.425781 461.332031 1456.855469 470.730469 C 1458.285156 480.128906 1459.429688 489.632812 1460.289062 499.242188 C 1461.148438 508.851562 1461.722656 518.558594 1462.011719 528.355469 C 1462.300781 538.15625 1462.304688 548.039062 1462.019531 558.007812 C 1461.738281 567.972656 1461.167969 578.007812 1460.3125 588.117188 C 1459.460938 598.226562 1458.320312 608.394531 1456.894531 618.617188 C 1455.472656 628.84375 1453.765625 639.117188 1451.773438 649.4375 C 1449.785156 659.757812 1447.515625 670.109375 1444.964844 680.496094 C 1442.410156 690.882812 1439.582031 701.292969 1436.476562 711.726562 C 1433.371094 722.15625 1429.992188 732.59375 1426.335938 743.042969 C 1422.683594 753.492188 1418.761719 763.9375 1414.566406 774.382812 C 1410.375 784.824219 1405.917969 795.25 1401.199219 805.660156 C 1396.476562 816.070312 1391.496094 826.449219 1386.257812 836.804688 C 1381.019531 847.15625 1375.53125 857.46875 1369.785156 867.738281 C 1364.042969 878.007812 1358.054688 888.226562 1351.820312 898.390625 C 1345.589844 908.550781 1339.117188 918.648438 1332.40625 928.683594 C 1325.699219 938.714844 1318.757812 948.667969 1311.589844 958.546875 C 1304.417969 968.421875 1297.03125 978.207031 1289.417969 987.90625 C 1281.804688 997.601562 1273.984375 1007.199219 1265.949219 1016.695312 C 1257.914062 1026.1875 1249.675781 1035.570312 1241.234375 1044.839844 C 1232.792969 1054.109375 1224.160156 1063.253906 1215.335938 1072.273438 C 1206.511719 1081.292969 1197.507812 1090.179688 1188.320312 1098.933594 C 1179.132812 1107.683594 1169.773438 1116.289062 1160.246094 1124.75 C 1150.71875 1133.210938 1141.03125 1141.515625 1131.183594 1149.664062 C 1121.335938 1157.8125 1111.34375 1165.796875 1101.203125 1173.617188 C 1091.0625 1181.4375 1080.789062 1189.078125 1070.375 1196.546875 C 1059.964844 1204.019531 1049.433594 1211.304688 1038.777344 1218.40625 C 1028.125 1225.503906 1017.359375 1232.414062 1006.484375 1239.132812 C 995.609375 1245.847656 984.640625 1252.363281 973.574219 1258.679688 C 962.503906 1264.996094 951.355469 1271.105469 940.121094 1277.003906 C 928.886719 1282.902344 917.585938 1288.589844 906.214844 1294.058594 C 894.839844 1299.527344 883.414062 1304.777344 871.929688 1309.800781 C 860.445312 1314.828125 848.917969 1319.625 837.347656 1324.195312 C 825.78125 1328.765625 814.183594 1333.105469 802.558594 1337.207031 C 790.9375 1341.3125 779.296875 1345.175781 767.644531 1348.804688 C 755.992188 1352.433594 744.339844 1355.816406 732.6875 1358.957031 C 721.03125 1362.101562 709.394531 1364.996094 697.769531 1367.644531 C 686.144531 1370.296875 674.546875 1372.695312 662.976562 1374.84375 C 651.410156 1376.996094 639.882812 1378.894531 628.398438 1380.539062 C 616.914062 1382.183594 605.484375 1383.574219 594.109375 1384.714844 C 582.734375 1385.851562 571.429688 1386.734375 560.195312 1387.359375 C 548.960938 1387.984375 537.808594 1388.355469 526.742188 1388.46875 C 515.671875 1388.582031 504.699219 1388.441406 493.824219 1388.042969 C 482.945312 1387.644531 472.179688 1386.988281 461.523438 1386.078125 C 450.867188 1385.164062 440.332031 1384 429.917969 1382.578125 C 419.503906 1381.160156 409.226562 1379.484375 399.082031 1377.558594 C 388.941406 1375.632812 378.941406 1373.453125 369.09375 1371.023438 C 359.246094 1368.597656 349.554688 1365.921875 340.023438 1362.996094 C 330.492188 1360.070312 321.128906 1356.902344 311.9375 1353.488281 C 302.746094 1350.078125 293.738281 1346.421875 284.910156 1342.53125 C 276.082031 1338.636719 267.445312 1334.507812 259.003906 1330.144531 C 250.558594 1325.777344 242.316406 1321.183594 234.277344 1316.359375 C 226.238281 1311.53125 218.410156 1306.484375 210.792969 1301.207031 C 203.179688 1295.933594 195.785156 1290.441406 188.609375 1284.730469 C 181.4375 1279.019531 174.492188 1273.097656 167.777344 1266.964844 C 161.066406 1260.832031 154.589844 1254.496094 148.351562 1247.957031 C 142.113281 1241.414062 136.117188 1234.675781 130.371094 1227.746094 C 124.625 1220.8125 119.128906 1213.691406 113.882812 1206.382812 C 108.640625 1199.074219 103.65625 1191.589844 98.929688 1183.921875 C 94.203125 1176.257812 89.742188 1168.421875 85.542969 1160.417969 C 81.347656 1152.410156 77.417969 1144.246094 73.757812 1135.921875 C 70.101562 1127.597656 66.714844 1119.121094 63.605469 1110.496094 C 60.492188 1101.871094 57.65625 1093.105469 55.101562 1084.203125 C 52.542969 1075.300781 50.269531 1066.265625 48.273438 1057.105469 C 46.277344 1047.941406 44.566406 1038.664062 43.136719 1029.265625 C 41.707031 1019.871094 40.5625 1010.367188 39.699219 1000.753906 C 38.839844 991.144531 38.265625 981.441406 37.976562 971.640625 C 37.6875 961.839844 37.683594 951.957031 37.96875 941.992188 C 38.25 932.027344 38.820312 921.988281 39.675781 911.878906 C 40.53125 901.773438 41.667969 891.605469 43.09375 881.378906 C 44.519531 871.152344 46.226562 860.878906 48.214844 850.5625 C 50.203125 840.242188 52.476562 829.886719 55.027344 819.5 C 57.578125 809.113281 60.40625 798.703125 63.511719 788.273438 C 66.617188 777.84375 70 767.402344 73.652344 756.953125 C 77.304688 746.503906 81.230469 736.058594 85.421875 725.617188 C 89.613281 715.175781 94.070312 704.75 98.792969 694.339844 C 103.511719 683.929688 108.492188 673.546875 113.730469 663.195312 C 118.96875 652.84375 124.460938 642.53125 130.203125 632.261719 C 135.945312 621.988281 141.933594 611.773438 148.167969 601.609375 C 154.402344 591.445312 160.875 581.347656 167.582031 571.316406 C 174.292969 561.28125 181.230469 551.328125 188.402344 541.453125 C 195.570312 531.574219 202.960938 521.789062 210.570312 512.089844 C 218.183594 502.394531 226.007812 492.796875 234.042969 483.304688 C 242.078125 473.808594 250.316406 464.429688 258.753906 455.160156 C 267.195312 445.890625 275.828125 436.746094 284.652344 427.722656 C 293.476562 418.703125 302.484375 409.816406 311.671875 401.066406 C 320.859375 392.3125 330.214844 383.707031 339.742188 375.246094 C 349.273438 366.789062 358.960938 358.480469 368.804688 350.332031 C 378.652344 342.183594 388.644531 334.199219 398.785156 326.378906 C 408.925781 318.5625 419.203125 310.917969 429.613281 303.449219 C 440.023438 295.980469 450.554688 288.695312 461.210938 281.59375 C 471.867188 274.492188 482.632812 267.582031 493.503906 260.867188 C 504.378906 254.148438 515.351562 247.632812 526.417969 241.316406 C 537.484375 235 548.636719 228.894531 559.867188 222.992188 C 571.101562 217.09375 582.40625 211.410156 593.777344 205.941406 C 605.148438 200.46875 616.578125 195.222656 628.0625 190.195312 C 639.546875 185.171875 651.070312 180.371094 662.640625 175.800781 C 674.207031 171.230469 685.804688 166.894531 697.429688 162.789062 C 709.054688 158.6875 720.691406 154.820312 732.34375 151.195312 C 744 147.566406 755.652344 144.179688 767.304688 141.039062 C 778.957031 137.898438 790.59375 135 802.21875 132.351562 C 813.84375 129.703125 825.441406 127.304688 837.011719 125.152344 C 848.582031 123.003906 860.105469 121.105469 871.59375 119.460938 C 883.078125 117.8125 894.507812 116.421875 905.878906 115.285156 C 917.253906 114.148438 928.558594 113.265625 939.792969 112.636719 C 951.027344 112.011719 962.179688 111.640625 973.25 111.527344 C 984.316406 111.414062 995.289062 111.558594 1006.167969 111.957031 C 1017.042969 112.355469 1027.808594 113.011719 1038.46875 113.921875 C 1049.125 114.832031 1059.660156 115.996094 1070.074219 117.417969 C 1080.484375 118.839844 1090.761719 120.511719 1100.90625 122.441406 C 1111.050781 124.367188 1121.046875 126.542969 1130.894531 128.972656 C 1140.746094 131.402344 1150.4375 134.078125 1159.96875 137 C 1169.5 139.925781 1178.859375 143.09375 1188.050781 146.507812 C 1197.242188 149.921875 1206.25 153.574219 1215.078125 157.46875 C 1223.90625 161.359375 1232.542969 165.492188 1240.988281 169.855469 C 1249.429688 174.21875 1257.671875 178.816406 1265.714844 183.640625 C 1273.753906 188.464844 1281.578125 193.515625 1289.195312 198.789062 C 1296.8125 204.0625 1304.207031 209.554688 1311.378906 215.265625 C 1318.554688 220.976562 1325.496094 226.898438 1332.210938 233.03125 C 1338.925781 239.164062 1345.402344 245.5 1351.640625 252.042969 C 1357.878906 258.582031 1363.871094 265.320312 1369.617188 272.253906 C 1375.367188 279.1875 1380.863281 286.304688 1386.105469 293.613281 Z M 1386.105469 293.613281 " fill-opacity="1" fill-rule="nonzero"/></g></g></g></svg>