<svg xmlns="http://www.w3.org/2000/svg" xmlns:xlink="http://www.w3.org/1999/xlink" width="1899" zoomAndPan="magnify" viewBox="0 0 1424.25 627.000003" height="836" preserveAspectRatio="xMidYMid meet" version="1.0"><defs><g/></defs><g fill="#000000" fill-opacity="1"><g transform="translate(68.353457, 525.756667)"><g><path d="M 374.84375 -168.21875 C 379.34375 -168.21875 382.890625 -166.65625 385.484375 -163.53125 C 388.078125 -160.414062 389.375 -157.039062 389.375 -153.40625 C 389.375 -149.78125 388.078125 -146.320312 385.484375 -143.03125 C 382.890625 -139.738281 379.34375 -137.921875 374.84375 -137.578125 C 334.34375 -135.160156 308.210938 -133.257812 296.453125 -131.875 C 297.835938 -91.71875 288.488281 -55.375 268.40625 -22.84375 C 251.445312 5.1875 231.03125 24.566406 207.15625 35.296875 C 196.070312 39.796875 184.644531 42.390625 172.875 43.078125 C 161.113281 43.773438 149.691406 41.613281 138.609375 36.59375 C 127.535156 31.582031 119.234375 23.710938 113.703125 12.984375 C 100.203125 -12.628906 106.773438 -43.085938 133.421875 -78.390625 C 151.765625 -102.617188 174.4375 -121.484375 201.4375 -134.984375 C 214.9375 -141.554688 229.300781 -147.09375 244.53125 -151.59375 C 243.488281 -161.289062 241.238281 -171.15625 237.78125 -181.1875 C 231.207031 -198.84375 219.695312 -212.859375 203.25 -223.234375 C 186.8125 -233.617188 169.59375 -236.738281 151.59375 -232.59375 C 147.789062 -231.207031 143.46875 -229.648438 138.625 -227.921875 C 138.269531 -227.921875 137.921875 -227.921875 137.578125 -227.921875 C 137.234375 -227.566406 136.890625 -227.390625 136.546875 -227.390625 C 134.117188 -226.015625 131.695312 -225.5 129.28125 -225.84375 C 122.351562 -224.457031 117.332031 -226.789062 114.21875 -232.84375 C 111.101562 -238.90625 111.796875 -244.359375 116.296875 -249.203125 C 117.679688 -250.929688 120.015625 -253.875 123.296875 -258.03125 C 126.585938 -262.1875 129.269531 -265.300781 131.34375 -267.375 C 137.226562 -273.257812 142.078125 -278.273438 145.890625 -282.421875 C 152.804688 -290.035156 160.421875 -301.285156 168.734375 -316.171875 C 172.535156 -322.753906 175.128906 -328.117188 176.515625 -332.265625 C 177.554688 -335.734375 178.421875 -339.023438 179.109375 -342.140625 C 179.804688 -345.253906 180.15625 -347.15625 180.15625 -347.84375 C 181.1875 -358.914062 179.628906 -367.914062 175.484375 -374.84375 C 175.484375 -374.84375 175.132812 -375.445312 174.4375 -376.65625 C 173.75 -377.863281 173.144531 -378.8125 172.625 -379.5 C 172.101562 -380.195312 171.84375 -380.546875 171.84375 -380.546875 C 171.84375 -380.898438 171.410156 -381.421875 170.546875 -382.109375 C 169.679688 -382.804688 169.078125 -383.328125 168.734375 -383.671875 C 168.390625 -384.015625 168.21875 -384.1875 168.21875 -384.1875 C 165.101562 -386.957031 161.117188 -389.035156 156.265625 -390.421875 C 146.234375 -393.535156 135.675781 -392.671875 124.59375 -387.828125 C 106.945312 -380.210938 93.101562 -369.132812 83.0625 -354.59375 C 83.0625 -350.789062 83.0625 -343.695312 83.0625 -333.3125 C 83.0625 -322.925781 83.0625 -314.789062 83.0625 -308.90625 C 83.0625 -299.90625 82.710938 -283.8125 82.015625 -260.625 C 81.328125 -237.4375 81.160156 -219.4375 81.515625 -206.625 C 81.515625 -200.738281 81.597656 -185.59375 81.765625 -161.1875 C 81.941406 -136.789062 82.203125 -117.847656 82.546875 -104.359375 C 82.890625 -103.660156 84.96875 -68.875 88.78125 0 C 89.125 5.539062 86.785156 9.867188 81.765625 12.984375 C 76.742188 16.097656 71.460938 16.875 65.921875 15.3125 C 60.390625 13.757812 57.109375 10.039062 56.078125 4.15625 C 50.878906 -25.957031 46.378906 -60.570312 42.578125 -99.6875 C 35.992188 -162.332031 32.359375 -197.285156 31.671875 -204.546875 C 31.328125 -211.472656 30.632812 -222.289062 29.59375 -237 C 28.550781 -251.707031 27.679688 -264.769531 26.984375 -276.1875 C 26.296875 -287.613281 25.953125 -298.519531 25.953125 -308.90625 C 25.953125 -318.25 26.300781 -335.726562 27 -361.34375 C 28.03125 -386.957031 31.488281 -405.128906 37.375 -415.859375 C 40.84375 -422.773438 47.160156 -426.320312 56.328125 -426.5 C 65.503906 -426.675781 71.820312 -423.128906 75.28125 -415.859375 C 77.351562 -411.015625 79.082031 -405.648438 80.46875 -399.765625 C 87.039062 -406.679688 94.3125 -412.566406 102.28125 -417.421875 C 129.625 -434.378906 156.097656 -439.742188 181.703125 -433.515625 C 198.316406 -429.703125 211.726562 -421.21875 221.9375 -408.0625 C 232.15625 -394.914062 238.300781 -379.515625 240.375 -361.859375 C 242.101562 -345.941406 240.023438 -330.109375 234.140625 -314.359375 C 228.265625 -298.609375 219.785156 -284.503906 208.703125 -272.046875 C 205.585938 -268.929688 202.128906 -265.816406 198.328125 -262.703125 C 205.941406 -260.972656 213.207031 -258.550781 220.125 -255.4375 C 250.238281 -242.625 272.046875 -219.429688 285.546875 -185.859375 C 288.316406 -178.597656 290.566406 -170.984375 292.296875 -163.015625 C 318.253906 -167.171875 345.769531 -168.90625 374.84375 -168.21875 Z M 212.859375 -44.125 Z M 239.34375 -97.078125 C 241.414062 -105.390625 242.972656 -113.003906 244.015625 -119.921875 C 234.316406 -116.460938 225.316406 -112.484375 217.015625 -107.984375 C 196.242188 -96.566406 179.285156 -82.378906 166.140625 -65.421875 C 145.023438 -37.722656 139.660156 -19.378906 150.046875 -10.390625 C 152.117188 -8.648438 155.234375 -8.128906 159.390625 -8.828125 C 163.191406 -9.171875 168.207031 -10.554688 174.4375 -12.984375 C 177.207031 -14.367188 180.5 -16.097656 184.3125 -18.171875 C 186.039062 -19.554688 188.289062 -21.113281 191.0625 -22.84375 C 191.0625 -22.84375 191.316406 -23.101562 191.828125 -23.625 C 192.347656 -24.144531 192.953125 -24.660156 193.640625 -25.171875 C 194.335938 -25.691406 194.6875 -25.953125 194.6875 -25.953125 C 198.84375 -29.421875 202.476562 -32.882812 205.59375 -36.34375 C 205.9375 -36.6875 206.367188 -37.117188 206.890625 -37.640625 C 207.410156 -38.160156 207.925781 -38.675781 208.4375 -39.1875 C 208.957031 -39.707031 209.476562 -40.226562 210 -40.75 C 210.519531 -41.269531 210.953125 -41.703125 211.296875 -42.046875 C 211.296875 -42.398438 211.644531 -42.75 212.34375 -43.09375 C 217.875 -50.707031 223.238281 -59.359375 228.4375 -69.046875 C 230.164062 -72.160156 231.550781 -75.273438 232.59375 -78.390625 C 232.9375 -78.390625 233.191406 -78.820312 233.359375 -79.6875 C 233.535156 -80.550781 233.625 -80.984375 233.625 -80.984375 C 235.707031 -86.523438 237.613281 -91.890625 239.34375 -97.078125 Z M 239.34375 -97.078125 "/></g></g></g><g fill="#000000" fill-opacity="1"><g transform="translate(391.795476, 525.756667)"><g><path d="M 186.375 -201.4375 C 189.84375 -205.9375 194.34375 -206.539062 199.875 -203.25 C 205.414062 -199.96875 207.148438 -195.726562 205.078125 -190.53125 C 197.460938 -172.1875 185.863281 -156.523438 170.28125 -143.546875 C 154.707031 -130.566406 137.40625 -122.347656 118.375 -118.890625 C 98.644531 -115.773438 82.722656 -116.296875 70.609375 -120.453125 C 51.921875 -127.710938 37.898438 -140.171875 28.546875 -157.828125 C 22.316406 -170.285156 18.597656 -183.78125 17.390625 -198.3125 C 16.179688 -212.851562 18.082031 -227.21875 23.09375 -241.40625 C 28.113281 -255.601562 36.335938 -266.679688 47.765625 -274.640625 C 65.066406 -286.753906 82.375 -290.5625 99.6875 -286.0625 C 117.675781 -281.21875 126.5 -267.894531 126.15625 -246.09375 C 126.15625 -228.78125 121.222656 -213.804688 111.359375 -201.171875 C 101.492188 -188.546875 88.429688 -180.675781 72.171875 -177.5625 C 76.671875 -169.59375 82.984375 -164.65625 91.109375 -162.75 C 99.242188 -160.851562 109.023438 -160.425781 120.453125 -161.46875 C 133.253906 -162.851562 143.117188 -165.96875 150.046875 -170.8125 C 168.035156 -183.613281 180.144531 -193.820312 186.375 -201.4375 Z M 89.8125 -252.3125 C 79.78125 -248.507812 72.6875 -241.15625 68.53125 -230.25 C 64.375 -219.351562 63.335938 -208.019531 65.421875 -196.25 C 80.296875 -201.09375 91.023438 -209.742188 97.609375 -222.203125 C 102.109375 -230.160156 103.835938 -238.125 102.796875 -246.09375 C 102.453125 -250.59375 101.238281 -253.273438 99.15625 -254.140625 C 97.082031 -255.003906 93.96875 -254.394531 89.8125 -252.3125 Z M 89.8125 -252.3125 "/></g></g></g><g fill="#000000" fill-opacity="1"><g transform="translate(547.546059, 525.756667)"><g><path d="M 222.203125 -201.953125 C 225.660156 -205.066406 229.8125 -205.410156 234.65625 -202.984375 C 239.507812 -200.566406 241.070312 -196.9375 239.34375 -192.09375 C 237.257812 -185.863281 234.3125 -179.285156 230.5 -172.359375 C 226.695312 -165.441406 222.285156 -158.4375 217.265625 -151.34375 C 212.253906 -144.25 206.632812 -138.101562 200.40625 -132.90625 C 194.175781 -127.71875 187.769531 -123.566406 181.1875 -120.453125 C 174.613281 -117.335938 167.601562 -116.296875 160.15625 -117.328125 C 152.71875 -118.367188 145.710938 -121.832031 139.140625 -127.71875 C 132.910156 -133.25 128.0625 -140.34375 124.59375 -149 C 111.789062 -136.195312 96.910156 -129.273438 79.953125 -128.234375 C 65.066406 -127.191406 51.910156 -130.648438 40.484375 -138.609375 C 29.066406 -146.578125 20.9375 -156.703125 16.09375 -168.984375 C 11.25 -181.273438 8.910156 -194.6875 9.078125 -209.21875 C 9.253906 -223.757812 12.628906 -236.914062 19.203125 -248.6875 C 25.429688 -260.800781 34.601562 -270.578125 46.71875 -278.015625 C 58.832031 -285.453125 71.640625 -289 85.140625 -288.65625 C 107.984375 -288.65625 126.328125 -280.347656 140.171875 -263.734375 C 141.210938 -266.160156 142.941406 -269.878906 145.359375 -274.890625 C 147.785156 -279.910156 149.519531 -283.460938 150.5625 -285.546875 C 152.976562 -291.078125 157.390625 -292.457031 163.796875 -289.6875 C 170.203125 -286.925781 172.363281 -282.601562 170.28125 -276.71875 C 163.363281 -254.914062 158 -234.148438 154.1875 -214.421875 C 148.65625 -187.421875 149.867188 -167.863281 157.828125 -155.75 C 160.253906 -151.945312 163.195312 -149.609375 166.65625 -148.734375 C 170.113281 -147.867188 173.570312 -148.472656 177.03125 -150.546875 C 180.5 -152.628906 183.960938 -155.316406 187.421875 -158.609375 C 190.878906 -161.898438 194.425781 -165.878906 198.0625 -170.546875 C 201.695312 -175.222656 204.898438 -179.550781 207.671875 -183.53125 C 210.441406 -187.507812 213.207031 -191.226562 215.96875 -194.6875 C 218.738281 -198.144531 220.816406 -200.566406 222.203125 -201.953125 Z M 72.6875 -173.40625 C 75.457031 -172.019531 78.3125 -171.328125 81.25 -171.328125 C 84.1875 -171.328125 86.867188 -171.671875 89.296875 -172.359375 C 91.722656 -173.054688 94.144531 -174.179688 96.5625 -175.734375 C 98.988281 -177.296875 101.148438 -178.941406 103.046875 -180.671875 C 104.953125 -182.398438 107.03125 -184.5625 109.28125 -187.15625 C 111.53125 -189.757812 113.347656 -192.007812 114.734375 -193.90625 C 116.117188 -195.8125 117.675781 -198.148438 119.40625 -200.921875 C 119.75 -202.992188 120.097656 -204.894531 120.453125 -206.625 C 122.179688 -216.664062 125.125 -227.394531 129.28125 -238.8125 C 109.894531 -254.738281 92.757812 -258.375 77.875 -249.71875 C 70.257812 -245.21875 64.550781 -238.644531 60.75 -230 C 57.632812 -223.757812 55.898438 -216.832031 55.546875 -209.21875 C 55.546875 -206.457031 55.546875 -203.863281 55.546875 -201.4375 C 55.546875 -200.050781 55.546875 -199.359375 55.546875 -199.359375 C 55.898438 -199.015625 56.078125 -198.320312 56.078125 -197.28125 C 56.421875 -195.550781 56.9375 -193.476562 57.625 -191.0625 C 58.320312 -189.320312 58.84375 -188.109375 59.1875 -187.421875 C 62.644531 -180.492188 67.144531 -175.820312 72.6875 -173.40625 Z M 72.6875 -173.40625 "/></g></g></g><g fill="#000000" fill-opacity="1"><g transform="translate(734.446757, 525.756667)"><g><path d="M 228.953125 -197.28125 C 232.066406 -201.09375 236.21875 -201.523438 241.40625 -198.578125 C 246.601562 -195.640625 248.335938 -191.75 246.609375 -186.90625 C 242.453125 -176.519531 239.421875 -169.25 237.515625 -165.09375 C 235.617188 -160.9375 232.421875 -154.789062 227.921875 -146.65625 C 223.421875 -138.53125 218.570312 -131.867188 213.375 -126.671875 C 208.1875 -121.484375 202.304688 -117.332031 195.734375 -114.21875 C 180.148438 -106.945312 165.085938 -107.03125 150.546875 -114.46875 C 136.015625 -121.914062 127.363281 -134.117188 124.59375 -151.078125 C 123.90625 -154.890625 123.390625 -159.128906 123.046875 -163.796875 C 122.703125 -168.472656 122.613281 -172.367188 122.78125 -175.484375 C 122.957031 -178.597656 123.128906 -182.921875 123.296875 -188.453125 C 123.472656 -193.992188 123.5625 -197.976562 123.5625 -200.40625 C 124.25 -206.632812 124.332031 -214.332031 123.8125 -223.5 C 123.300781 -232.675781 121.488281 -240.207031 118.375 -246.09375 C 115.601562 -250.9375 112.226562 -254.050781 108.25 -255.4375 C 104.269531 -256.820312 100.203125 -256.734375 96.046875 -255.171875 C 91.890625 -253.617188 87.910156 -250.765625 84.109375 -246.609375 C 75.109375 -238.296875 69.222656 -228.773438 66.453125 -218.046875 C 67.148438 -209.398438 67.5 -203.691406 67.5 -200.921875 C 67.84375 -196.078125 68.359375 -189.929688 69.046875 -182.484375 C 69.742188 -175.046875 70.347656 -168.644531 70.859375 -163.28125 C 71.378906 -157.914062 71.8125 -151.769531 72.15625 -144.84375 C 72.507812 -137.925781 72.515625 -131.695312 72.171875 -126.15625 C 71.816406 -119.238281 68.957031 -114.046875 63.59375 -110.578125 C 58.226562 -107.117188 52.515625 -106.34375 46.453125 -108.25 C 40.398438 -110.15625 36.507812 -114.394531 34.78125 -120.96875 C 30.625 -136.195312 27.859375 -162.15625 26.484375 -198.84375 C 25.097656 -232.414062 26.65625 -258.03125 31.15625 -275.6875 C 32.539062 -282.601562 37.210938 -286.0625 45.171875 -286.0625 C 53.128906 -286.0625 57.972656 -282.601562 59.703125 -275.6875 C 60.398438 -271.53125 61.265625 -266.679688 62.296875 -261.140625 C 70.253906 -269.453125 78.734375 -275.507812 87.734375 -279.3125 C 103.316406 -285.539062 117.679688 -284.675781 130.828125 -276.71875 C 143.984375 -268.757812 153.328125 -256.816406 158.859375 -240.890625 C 163.015625 -228.773438 165.09375 -211.296875 165.09375 -188.453125 C 165.09375 -187.765625 164.921875 -185 164.578125 -180.15625 C 164.234375 -175.3125 164.0625 -171.242188 164.0625 -167.953125 C 164.0625 -164.660156 164.578125 -161.195312 165.609375 -157.5625 C 166.648438 -153.9375 168.207031 -151.429688 170.28125 -150.046875 C 177.207031 -144.847656 187.421875 -148.828125 200.921875 -161.984375 C 202.992188 -164.054688 205.066406 -166.21875 207.140625 -168.46875 C 209.222656 -170.71875 211.128906 -173.050781 212.859375 -175.46875 C 214.585938 -177.894531 216.316406 -180.234375 218.046875 -182.484375 C 219.773438 -184.734375 221.675781 -187.242188 223.75 -190.015625 C 225.832031 -192.785156 227.566406 -195.207031 228.953125 -197.28125 Z M 228.953125 -197.28125 "/></g></g></g><g fill="#000000" fill-opacity="1"><g transform="translate(922.904934, 525.756667)"><g><path d="M 186.375 -201.4375 C 189.84375 -205.9375 194.34375 -206.539062 199.875 -203.25 C 205.414062 -199.96875 207.148438 -195.726562 205.078125 -190.53125 C 197.460938 -172.1875 185.863281 -156.523438 170.28125 -143.546875 C 154.707031 -130.566406 137.40625 -122.347656 118.375 -118.890625 C 98.644531 -115.773438 82.722656 -116.296875 70.609375 -120.453125 C 51.921875 -127.710938 37.898438 -140.171875 28.546875 -157.828125 C 22.316406 -170.285156 18.597656 -183.78125 17.390625 -198.3125 C 16.179688 -212.851562 18.082031 -227.21875 23.09375 -241.40625 C 28.113281 -255.601562 36.335938 -266.679688 47.765625 -274.640625 C 65.066406 -286.753906 82.375 -290.5625 99.6875 -286.0625 C 117.675781 -281.21875 126.5 -267.894531 126.15625 -246.09375 C 126.15625 -228.78125 121.222656 -213.804688 111.359375 -201.171875 C 101.492188 -188.546875 88.429688 -180.675781 72.171875 -177.5625 C 76.671875 -169.59375 82.984375 -164.65625 91.109375 -162.75 C 99.242188 -160.851562 109.023438 -160.425781 120.453125 -161.46875 C 133.253906 -162.851562 143.117188 -165.96875 150.046875 -170.8125 C 168.035156 -183.613281 180.144531 -193.820312 186.375 -201.4375 Z M 89.8125 -252.3125 C 79.78125 -248.507812 72.6875 -241.15625 68.53125 -230.25 C 64.375 -219.351562 63.335938 -208.019531 65.421875 -196.25 C 80.296875 -201.09375 91.023438 -209.742188 97.609375 -222.203125 C 102.109375 -230.160156 103.835938 -238.125 102.796875 -246.09375 C 102.453125 -250.59375 101.238281 -253.273438 99.15625 -254.140625 C 97.082031 -255.003906 93.96875 -254.394531 89.8125 -252.3125 Z M 89.8125 -252.3125 "/></g></g></g><g fill="#000000" fill-opacity="1"><g transform="translate(1078.655517, 525.756667)"><g><path d="M 240.890625 -204.03125 C 244.359375 -209.914062 249.984375 -211.992188 257.765625 -210.265625 C 265.554688 -208.535156 269.101562 -204.035156 268.40625 -196.765625 C 264.601562 -167.691406 251.625 -145.882812 229.46875 -131.34375 C 219.4375 -125.113281 208.535156 -121.828125 196.765625 -121.484375 C 184.992188 -121.140625 173.921875 -123.910156 163.546875 -129.796875 C 154.546875 -134.984375 146.753906 -142.425781 140.171875 -152.125 C 123.910156 -135.507812 105.222656 -127.203125 84.109375 -127.203125 C 74.066406 -126.847656 64.632812 -128.921875 55.8125 -133.421875 C 46.988281 -137.921875 39.632812 -143.804688 33.75 -151.078125 C 27.863281 -158.347656 23.101562 -166.65625 19.46875 -176 C 15.832031 -185.34375 13.84375 -194.859375 13.5 -204.546875 C 12.800781 -222.890625 16.953125 -240.023438 25.953125 -255.953125 C 34.265625 -271.179688 46.726562 -281.738281 63.34375 -287.625 C 81.6875 -294.539062 96.914062 -296.789062 109.03125 -294.375 C 108.675781 -330.71875 112.65625 -365.675781 120.96875 -399.25 C 122.695312 -405.476562 126.503906 -415.859375 132.390625 -430.390625 C 135.847656 -439.046875 140.519531 -445.273438 146.40625 -449.078125 C 152.289062 -452.546875 158 -453.585938 163.53125 -452.203125 C 169.070312 -450.816406 173.75 -447.523438 177.5625 -442.328125 C 183.09375 -434.710938 187.765625 -422.945312 191.578125 -407.03125 C 195.035156 -391.113281 197.285156 -370.691406 198.328125 -345.765625 C 200.398438 -302.847656 192.613281 -257.679688 174.96875 -210.265625 C 173.226562 -206.109375 171.492188 -202.128906 169.765625 -198.328125 C 174.609375 -183.097656 180.492188 -173.0625 187.421875 -168.21875 C 190.878906 -165.789062 194.425781 -164.488281 198.0625 -164.3125 C 201.695312 -164.144531 205.332031 -165.1875 208.96875 -167.4375 C 212.601562 -169.6875 215.800781 -172.019531 218.5625 -174.4375 C 221.332031 -176.863281 224.363281 -180.328125 227.65625 -184.828125 C 230.945312 -189.328125 233.367188 -192.703125 234.921875 -194.953125 C 236.484375 -197.203125 238.472656 -200.226562 240.890625 -204.03125 Z M 158.34375 -431.953125 C 155.570312 -432.296875 153.148438 -428.921875 151.078125 -421.828125 C 149.003906 -414.734375 147.535156 -405.734375 146.671875 -394.828125 C 145.804688 -383.921875 145.285156 -374.75 145.109375 -367.3125 C 144.929688 -359.875 144.84375 -354.078125 144.84375 -349.921875 C 144.84375 -321.890625 148.304688 -290.910156 155.234375 -256.984375 C 155.921875 -259.410156 156.441406 -261.835938 156.796875 -264.265625 C 166.828125 -301.640625 171.5 -338.148438 170.8125 -373.796875 C 170.8125 -390.066406 169.769531 -402.007812 167.6875 -409.625 C 164.570312 -423.8125 161.457031 -431.253906 158.34375 -431.953125 Z M 117.859375 -185.859375 C 119.585938 -187.242188 121.316406 -188.976562 123.046875 -191.0625 C 123.046875 -191.40625 122.875 -191.578125 122.53125 -191.578125 C 116.988281 -211.648438 113.003906 -234.835938 110.578125 -261.140625 C 106.773438 -261.835938 102.796875 -262.1875 98.640625 -262.1875 C 88.609375 -261.488281 80.128906 -256.296875 73.203125 -246.609375 C 70.429688 -242.796875 68.351562 -238.296875 66.96875 -233.109375 L 66.453125 -230.515625 C 66.109375 -230.171875 65.9375 -229.648438 65.9375 -228.953125 C 65.9375 -228.265625 65.847656 -227.742188 65.671875 -227.390625 C 65.503906 -227.046875 65.421875 -226.523438 65.421875 -225.828125 C 65.421875 -225.140625 65.421875 -224.453125 65.421875 -223.765625 C 65.066406 -221.679688 64.890625 -220.640625 64.890625 -220.640625 L 64.375 -219.09375 C 64.03125 -211.476562 64.203125 -205.421875 64.890625 -200.921875 C 65.242188 -199.535156 65.9375 -197.285156 66.96875 -194.171875 C 67.320312 -193.128906 67.671875 -191.914062 68.015625 -190.53125 C 68.359375 -190.53125 68.53125 -190.359375 68.53125 -190.015625 C 69.914062 -187.242188 71.128906 -184.992188 72.171875 -183.265625 C 72.515625 -183.265625 72.941406 -183.003906 73.453125 -182.484375 C 73.972656 -181.960938 74.578125 -181.269531 75.265625 -180.40625 C 75.960938 -179.539062 76.398438 -179.109375 76.578125 -179.109375 C 76.753906 -179.109375 76.84375 -178.9375 76.84375 -178.59375 C 77.875 -177.90625 78.738281 -177.382812 79.4375 -177.03125 C 81.851562 -176 83.753906 -175.3125 85.140625 -174.96875 C 96.566406 -172.539062 107.472656 -176.171875 117.859375 -185.859375 Z M 117.859375 -185.859375 "/></g></g></g></svg>